<svg xmlns="http://www.w3.org/2000/svg" width="81" height="30" viewBox="0 0 81 30" fill="none">
	<path
		d="M15 30C18.9782 30 22.7936 28.4196 25.6066 25.6066C28.4196 22.7936 30 18.9782 30 15C30 11.0218 28.4197 7.20645 25.6066 4.3934C22.7936 1.58035 18.9783 9.95928e-07 15 0V30Z"
		fill="#E8DFFF"
	/>
	<path
		d="M15 0C13.0302 -2.34897e-08 11.0796 0.387988 9.25975 1.14181C7.43986 1.89563 5.78628 3.00052 4.3934 4.3934C3.00052 5.78628 1.89563 7.43987 1.14181 9.25975C0.387986 11.0796 -6.2614e-08 13.0302 0 15C6.2614e-08 16.9698 0.387987 18.9204 1.14181 20.7403C1.89563 22.5601 3.00052 24.2137 4.3934 25.6066C5.78628 26.9995 7.43987 28.1044 9.25975 28.8582C11.0796 29.612 13.0302 30 15 30V0Z"
		fill="white"
	/>
	<path
		fill-rule="evenodd"
		clip-rule="evenodd"
		d="M15 10.25C15.4142 10.25 15.75 10.5858 15.75 11V19C15.75 19.4142 15.4142 19.75 15 19.75C14.5858 19.75 14.25 19.4142 14.25 19V11C14.25 10.5858 14.5858 10.25 15 10.25ZM12 12.25C12.4142 12.25 12.75 12.5858 12.75 13V17C12.75 17.4142 12.4142 17.75 12 17.75C11.5858 17.75 11.25 17.4142 11.25 17V13C11.25 12.5858 11.5858 12.25 12 12.25ZM18 12.25C18.4142 12.25 18.75 12.5858 18.75 13V17C18.75 17.4142 18.4142 17.75 18 17.75C17.5858 17.75 17.25 17.4142 17.25 17V13C17.25 12.5858 17.5858 12.25 18 12.25ZM9 13.25C9.41421 13.25 9.75 13.5858 9.75 14V16C9.75 16.4142 9.41421 16.75 9 16.75C8.58579 16.75 8.25 16.4142 8.25 16V14C8.25 13.5858 8.58579 13.25 9 13.25ZM21 13.25C21.4142 13.25 21.75 13.5858 21.75 14V16C21.75 16.4142 21.4142 16.75 21 16.75C20.5858 16.75 20.25 16.4142 20.25 16V14C20.25 13.5858 20.5858 13.25 21 13.25Z"
		fill="#7A3FF6"
	/>
	<path
		d="M34 19.5L38.688 10.092H41.84L46.512 19.5H44.048L43.104 17.468H37.376L36.336 19.5H34ZM37.952 15.9H42.512L40.32 11.532H40.16L37.952 15.9Z"
		fill="white"
	/>
	<path
		d="M50.2596 19.5C49.449 19.5 48.8943 19.3293 48.5956 18.988C48.297 18.6467 48.1476 18.1347 48.1476 17.452V13.708H46.8356V12.332H47.5076C47.7103 12.332 47.8543 12.3 47.9396 12.236C48.0356 12.172 48.105 12.044 48.1476 11.852L48.4676 10.14H50.0996V12.332H53.4276V13.708H50.0996V17.468C50.0996 17.7347 50.1636 17.9107 50.2916 17.996C50.4196 18.0813 50.6116 18.124 50.8676 18.124H53.1236L53.2836 19.34C53.0596 19.372 52.7183 19.4093 52.2596 19.452C51.801 19.484 51.2996 19.5 50.7556 19.5H50.2596Z"
		fill="white"
	/>
	<path
		d="M54.71 19.5V12.332H56.022L56.63 12.652C56.9073 12.5027 57.206 12.3853 57.526 12.3C57.846 12.2147 58.2513 12.172 58.742 12.172C59.5207 12.172 60.15 12.2573 60.63 12.428C61.1207 12.5987 61.446 12.7267 61.606 12.812L61.046 14.204C60.918 14.14 60.7047 14.06 60.406 13.964C60.118 13.8573 59.7767 13.7613 59.382 13.676C58.9873 13.5907 58.5553 13.548 58.086 13.548H57.91C57.398 13.548 57.062 13.6493 56.902 13.852C56.7527 14.0547 56.6727 14.3907 56.662 14.86V19.5H54.71Z"
		fill="white"
	/>
	<path
		d="M64.6776 19.5C64.1443 19.5 63.7336 19.4307 63.4456 19.292C63.1576 19.1533 62.9496 18.9773 62.8216 18.764C62.7043 18.5507 62.6296 18.3267 62.5976 18.092C62.5763 17.8573 62.5656 17.644 62.5656 17.452V14.38C62.5656 14.22 62.5763 14.028 62.5976 13.804C62.6296 13.5693 62.7043 13.34 62.8216 13.116C62.9496 12.892 63.1576 12.7053 63.4456 12.556C63.7443 12.4067 64.155 12.332 64.6776 12.332H68.1176C68.8216 12.332 69.371 12.4013 69.7656 12.54C70.171 12.668 70.4536 12.8813 70.6136 13.18C70.7843 13.4787 70.8696 13.8787 70.8696 14.38V16.748H68.0696C67.1096 16.748 66.3256 16.7267 65.7176 16.684C65.1203 16.6413 64.7203 16.6147 64.5176 16.604V17.484C64.507 17.9107 64.763 18.124 65.2856 18.124H66.1016C66.6776 18.124 67.2376 18.1187 67.7816 18.108C68.3363 18.0867 68.843 18.0653 69.3016 18.044C69.7603 18.012 70.1283 17.9853 70.4056 17.964L71.0456 19.004C71.0456 19.3347 69.995 19.5 67.8936 19.5H64.6776ZM64.5176 15.372H68.9176V14.348C68.9176 14.1347 68.891 13.9853 68.8376 13.9C68.795 13.8147 68.6563 13.7613 68.4216 13.74C68.187 13.7187 67.787 13.708 67.2216 13.708H65.2856C64.7736 13.708 64.5176 13.9213 64.5176 14.348V15.372Z"
		fill="white"
	/>
	<path
		d="M74.5995 19.5C74.0662 19.5 73.6555 19.4307 73.3675 19.292C73.0795 19.1533 72.8715 18.9773 72.7435 18.764C72.6262 18.5507 72.5515 18.3267 72.5195 18.092C72.4982 17.8573 72.4875 17.644 72.4875 17.452V14.38C72.4875 14.22 72.4982 14.028 72.5195 13.804C72.5515 13.5693 72.6262 13.34 72.7435 13.116C72.8715 12.892 73.0795 12.7053 73.3675 12.556C73.6662 12.4067 74.0768 12.332 74.5995 12.332H76.8235C78.1568 12.332 79.1008 12.3693 79.6555 12.444C80.2208 12.508 80.5035 12.5773 80.5035 12.652L80.1835 13.868C79.8848 13.8467 79.5062 13.8253 79.0475 13.804C78.5888 13.772 78.0928 13.7507 77.5595 13.74C77.0368 13.7187 76.5248 13.708 76.0235 13.708H75.2075C74.6955 13.708 74.4395 13.9213 74.4395 14.348V17.484C74.4288 17.9107 74.6848 18.124 75.2075 18.124H76.0235C76.5995 18.124 77.1595 18.1187 77.7035 18.108C78.2582 18.0867 78.7648 18.0653 79.2235 18.044C79.6822 18.012 80.0502 17.9853 80.3275 17.964L80.9675 19.004C80.9675 19.3347 79.9168 19.5 77.8155 19.5H74.5995Z"
		fill="white"
	/>
</svg>