<svg width="24" height="24" viewBox="0 0 24 24" fill="none" xmlns="http://www.w3.org/2000/svg">
<path d="M12.3151 19.5001C15.4741 19.5001 17.4331 17.8696 17.4331 15.2656C17.4331 13.3066 15.9571 11.8411 13.9471 11.6866V11.6041C14.7169 11.4882 15.4199 11.101 15.9293 10.5124C16.4387 9.9238 16.7209 9.17252 16.7251 8.3941C16.7251 6.1291 14.9821 4.7041 12.2041 4.7041H5.76465V19.5001H12.3151ZM8.86215 7.0111H11.4061C12.8506 7.0111 13.6816 7.6876 13.6816 8.8771C13.6816 10.1281 12.7381 10.8571 11.0866 10.8571H8.86215V7.0111ZM8.86215 17.1931V12.8971H11.4571C13.2826 12.8971 14.2771 13.6351 14.2771 15.0196C14.2771 16.4341 13.3126 17.1931 11.5291 17.1931H8.86215Z" fill="black"/>
</svg>
