<svg xmlns="http://www.w3.org/2000/svg" width="48" height="48" viewBox="0 0 48 48" fill="none">
    <path
        opacity="0.4"
        d="M13.5203 44H34.4804C40.0004 44 42.2004 40.62 42.4604 36.5L43.5004 19.98C43.7804 15.66 40.3404 12 36.0004 12C34.7804 12 33.6604 11.3 33.1004 10.22L31.6604 7.32C30.7404 5.5 28.3404 4 26.3004 4H21.7204C19.6603 4 17.2603 5.5 16.3403 7.32L14.9003 10.22C14.3403 11.3 13.2203 12 12.0003 12C7.66034 12 4.22034 15.66 4.50034 19.98L5.54034 36.5C5.78034 40.62 8.00034 44 13.5203 44Z"
        fill="url(#paint0_linear_309_99)"
    />
    <path
        d="M27 17.5H21C20.18 17.5 19.5 16.82 19.5 16C19.5 15.18 20.18 14.5 21 14.5H27C27.82 14.5 28.5 15.18 28.5 16C28.5 16.82 27.82 17.5 27 17.5Z"
        fill="#7A3FF6"
    />
    <path
        d="M23.9982 36.2602C27.7318 36.2602 30.7582 33.2336 30.7582 29.5002C30.7582 25.7668 27.7318 22.7402 23.9982 22.7402C20.2648 22.7402 17.2383 25.7668 17.2383 29.5002C17.2383 33.2336 20.2648 36.2602 23.9982 36.2602Z"
        fill="#7A3FF6"
    />
    <defs>
        <linearGradient id="paint0_linear_309_99" x1="32.6654" y1="3.70911" x2="-0.864119" y2="24.4562" gradientUnits="userSpaceOnUse">
            <stop stop-color="#6426E6" />
            <stop offset="1" stop-color="#451AA0" />
        </linearGradient>
    </defs>
</svg>