<svg width="40" height="40" viewBox="0 0 40 40" fill="none" xmlns="http://www.w3.org/2000/svg">
<path d="M0.615385 10.4615C0.955252 10.4615 1.23077 10.186 1.23077 9.8461C1.23077 9.50623 0.955252 9.23071 0.615385 9.23071C0.275517 9.23071 0 9.50623 0 9.8461C0 10.186 0.275517 10.4615 0.615385 10.4615Z" fill="#00C033"/>
<path d="M32 35.6922C32.3399 35.6922 32.6154 35.4167 32.6154 35.0768C32.6154 34.7369 32.3399 34.4614 32 34.4614C31.6602 34.4614 31.3846 34.7369 31.3846 35.0768C31.3846 35.4167 31.6602 35.6922 32 35.6922Z" fill="#00C033"/>
<path d="M19.6924 35.0768C28.189 35.0768 35.077 28.1889 35.077 19.6922C35.077 11.1955 28.189 4.30762 19.6924 4.30762C11.1957 4.30762 4.30774 11.1955 4.30774 19.6922C4.30774 28.1889 11.1957 35.0768 19.6924 35.0768Z" fill="#FB3D80"/>
<path d="M34.4615 20.3076C34.1231 20.3076 33.8461 20.0307 33.8461 19.6922C33.8461 11.8892 27.4954 5.53839 19.6923 5.53839C19.3538 5.53839 19.0769 5.26146 19.0769 4.923C19.0769 4.58454 19.3538 4.30762 19.6923 4.30762C28.1784 4.30762 35.0769 11.2061 35.0769 19.6922C35.0769 20.0307 34.8 20.3076 34.4615 20.3076Z" fill="#FF5F9C"/>
<path d="M24.6154 30.1538C16.117 30.1538 9.23082 23.2676 9.23082 14.7692C9.23082 11.7846 10.0862 8.99687 11.557 6.63379C7.2062 9.35379 4.30774 14.1784 4.30774 19.6923C4.30774 28.1907 11.1939 35.0769 19.6924 35.0769C25.2 35.0769 30.0308 32.1784 32.7508 27.8276C30.3877 29.2984 27.6062 30.1538 24.6154 30.1538Z" fill="#E21E69"/>
<path d="M19.6923 31.9999C26.4897 31.9999 32 26.4896 32 19.6922C32 12.8949 26.4897 7.38452 19.6923 7.38452C12.895 7.38452 7.38464 12.8949 7.38464 19.6922C7.38464 26.4896 12.895 31.9999 19.6923 31.9999Z" fill="#F5F7F7"/>
<path d="M24.6154 27.0768C17.8154 27.0768 12.3077 21.5691 12.3077 14.7691C12.3077 12.6337 12.8493 10.6337 13.8031 8.87988C9.97541 10.966 7.38464 15.0276 7.38464 19.6922C7.38464 26.4922 12.8923 31.9999 19.6923 31.9999C24.357 31.9999 28.4123 29.403 30.5046 25.5814C28.757 26.5353 26.7508 27.0768 24.6154 27.0768Z" fill="#D3E5E4"/>
<path d="M19.6923 30.1538C25.47 30.1538 30.1538 25.47 30.1538 19.6923C30.1538 13.9145 25.47 9.23071 19.6923 9.23071C13.9145 9.23071 9.23071 13.9145 9.23071 19.6923C9.23071 25.47 13.9145 30.1538 19.6923 30.1538Z" fill="#FB3D80"/>
<path d="M29.5384 20.3076C29.2 20.3076 28.9231 20.0307 28.9231 19.6923C28.9231 14.603 24.7815 10.4615 19.6923 10.4615C19.3538 10.4615 19.0769 10.1846 19.0769 9.8461C19.0769 9.50764 19.3538 9.23071 19.6923 9.23071C25.4584 9.23071 30.1538 13.9261 30.1538 19.6923C30.1538 20.0307 29.8769 20.3076 29.5384 20.3076Z" fill="#FF5F9C"/>
<path d="M24.6153 25.2308C18.8369 25.2308 14.1538 20.5477 14.1538 14.7693C14.1538 13.1508 14.5292 11.6308 15.1876 10.2646C11.6676 11.9508 9.23071 15.5323 9.23071 19.6923C9.23071 25.4708 13.9138 30.1539 19.6923 30.1539C23.8523 30.1539 27.4399 27.717 29.1199 24.197C27.7538 24.8493 26.2276 25.2308 24.6153 25.2308Z" fill="#E21E69"/>
<path d="M5.48308 4.61539L5.96924 4.12924C6.20924 3.88924 6.20924 3.50154 5.96924 3.26154C5.72924 3.02154 5.34154 3.02154 5.10154 3.26154L4.61539 3.7477L4.12924 3.26154C3.88924 3.02154 3.50154 3.02154 3.26154 3.26154C3.02154 3.50154 3.02154 3.88924 3.26154 4.12924L3.7477 4.61539L3.26154 5.10154C3.02154 5.34154 3.02154 5.72923 3.26154 5.96923C3.38462 6.09231 3.53847 6.1477 3.69847 6.1477C3.85847 6.1477 4.01231 6.08616 4.13539 5.96923L4.62154 5.48308L5.1077 5.96923C5.23077 6.09231 5.38462 6.1477 5.54462 6.1477C5.70462 6.1477 5.85847 6.08616 5.98154 5.96923C6.22154 5.72923 6.22154 5.34154 5.98154 5.10154L5.49539 4.61539H5.48308Z" fill="#24D6FF"/>
<path d="M24.3323 16.6153L22.5907 14.8738L19.6677 17.7969L16.7446 14.8738L15.0031 16.6153L17.9261 19.5384L15.0031 22.4615L16.7446 24.203L19.6677 21.2799L22.5907 24.203L24.3323 22.4615L21.4092 19.5384L24.3323 16.6153Z" fill="#F5F7F7"/>
<path d="M37.5385 31.3846C38.2182 31.3846 38.7693 30.8336 38.7693 30.1539C38.7693 29.4741 38.2182 28.9231 37.5385 28.9231C36.8588 28.9231 36.3077 29.4741 36.3077 30.1539C36.3077 30.8336 36.8588 31.3846 37.5385 31.3846Z" fill="#24D6FF"/>
</svg>
