<svg width="24" height="24" viewBox="0 0 24 24" fill="none" xmlns="http://www.w3.org/2000/svg">
<path d="M20.427 3.57199L20.4279 3.57287C20.4511 3.5961 20.4696 3.62369 20.4822 3.65406C20.4948 3.68443 20.5013 3.71699 20.5013 3.74988C20.5013 3.78276 20.4948 3.81532 20.4822 3.84569C20.4696 3.87607 20.4511 3.90366 20.4279 3.92688L20.4274 3.92732L3.92742 20.4273C3.88036 20.4744 3.81653 20.5008 3.74997 20.5008C3.68341 20.5008 3.61958 20.4744 3.57252 20.4273C3.52546 20.3803 3.49902 20.3164 3.49902 20.2499C3.49902 20.1833 3.52546 20.1195 3.57252 20.0724L20.0725 3.57243L20.073 3.57198C20.0962 3.5487 20.1238 3.53023 20.1542 3.51763C20.1845 3.50502 20.2171 3.49854 20.25 3.49854C20.2829 3.49854 20.3154 3.50502 20.3458 3.51763C20.3762 3.53023 20.4037 3.5487 20.427 3.57199Z" stroke="black"/>
</svg>
