<svg width="24" height="24" viewBox="0 0 24 24" fill="none" xmlns="http://www.w3.org/2000/svg">
<mask id="path-1-inside-1_342_1566" fill="white">
<path fill-rule="evenodd" clip-rule="evenodd" d="M11.7345 6.11016C11.7694 6.07524 11.8107 6.04754 11.8563 6.02863C11.9018 6.00973 11.9507 6 12 6C12.0493 6 12.0982 6.00973 12.1437 6.02863C12.1893 6.04754 12.2306 6.07524 12.2655 6.11016L13.7653 7.60999C13.8002 7.64485 13.8278 7.68624 13.8467 7.73179C13.8656 7.77734 13.8753 7.82616 13.8753 7.87546C13.8753 7.92476 13.8656 7.97358 13.8467 8.01913C13.8278 8.06468 13.8002 8.10607 13.7653 8.14093C13.7304 8.17579 13.6891 8.20345 13.6435 8.22231C13.598 8.24118 13.5491 8.25089 13.4998 8.25089C13.4505 8.25089 13.4017 8.24118 13.3562 8.22231C13.3106 8.20345 13.2692 8.17579 13.2344 8.14093L12.375 7.28078V10.1252C12.375 10.2247 12.3355 10.32 12.2651 10.3903C12.1948 10.4607 12.0994 10.5002 12 10.5002C11.9006 10.5002 11.8052 10.4607 11.7349 10.3903C11.6645 10.32 11.625 10.2247 11.625 10.1252V7.28078L10.7656 8.14093C10.6952 8.21134 10.5997 8.25089 10.5002 8.25089C10.4006 8.25089 10.3051 8.21134 10.2347 8.14093C10.1643 8.07052 10.1247 7.97503 10.1247 7.87546C10.1247 7.77589 10.1643 7.6804 10.2347 7.60999L11.7345 6.11016ZM12 13.4998C12.0994 13.4998 12.1948 13.5393 12.2651 13.6097C12.3355 13.68 12.375 13.7753 12.375 13.8748V16.7192L13.2344 15.8591C13.3048 15.7887 13.4003 15.7491 13.4998 15.7491C13.5994 15.7491 13.6949 15.7887 13.7653 15.8591C13.8357 15.9295 13.8753 16.025 13.8753 16.1245C13.8753 16.2241 13.8357 16.3196 13.7653 16.39L12.2655 17.8898C12.2306 17.9248 12.1893 17.9525 12.1437 17.9714C12.0982 17.9903 12.0493 18 12 18C11.9507 18 11.9018 17.9903 11.8563 17.9714C11.8107 17.9525 11.7694 17.9248 11.7345 17.8898L10.2347 16.39C10.1998 16.3551 10.1722 16.3138 10.1533 16.2682C10.1344 16.2227 10.1247 16.1738 10.1247 16.1245C10.1247 16.0752 10.1344 16.0264 10.1533 15.9809C10.1722 15.9353 10.1998 15.8939 10.2347 15.8591C10.3051 15.7887 10.4006 15.7491 10.5002 15.7491C10.5495 15.7491 10.5983 15.7588 10.6438 15.7777C10.6894 15.7966 10.7308 15.8242 10.7656 15.8591L11.625 16.7192V13.8748C11.625 13.7753 11.6645 13.68 11.7349 13.6097C11.8052 13.5393 11.9006 13.4998 12 13.4998ZM6.11016 12.2655C6.07524 12.2306 6.04754 12.1893 6.02863 12.1437C6.00973 12.0982 6 12.0493 6 12C6 11.9507 6.00973 11.9018 6.02863 11.8563C6.04754 11.8107 6.07524 11.7694 6.11016 11.7345L7.60999 10.2347C7.6804 10.1643 7.77589 10.1247 7.87546 10.1247C7.97503 10.1247 8.07052 10.1643 8.14093 10.2347C8.21134 10.3051 8.25089 10.4006 8.25089 10.5002C8.25089 10.5997 8.21134 10.6952 8.14093 10.7656L7.28078 11.625H10.1252C10.2247 11.625 10.32 11.6645 10.3903 11.7349C10.4607 11.8052 10.5002 11.9006 10.5002 12C10.5002 12.0994 10.4607 12.1948 10.3903 12.2651C10.32 12.3355 10.2247 12.375 10.1252 12.375H7.28078L8.14093 13.2344C8.21134 13.3048 8.25089 13.4003 8.25089 13.4998C8.25089 13.5994 8.21134 13.6949 8.14093 13.7653C8.07052 13.8357 7.97503 13.8753 7.87546 13.8753C7.77589 13.8753 7.6804 13.8357 7.60999 13.7653L6.11016 12.2655ZM13.4998 12C13.4998 11.9006 13.5393 11.8052 13.6097 11.7349C13.68 11.6645 13.7753 11.625 13.8748 11.625H16.7192L15.8591 10.7656C15.8242 10.7308 15.7966 10.6894 15.7777 10.6438C15.7588 10.5983 15.7491 10.5495 15.7491 10.5002C15.7491 10.4509 15.7588 10.402 15.7777 10.3565C15.7966 10.3109 15.8242 10.2696 15.8591 10.2347C15.9295 10.1643 16.025 10.1247 16.1245 10.1247C16.1738 10.1247 16.2227 10.1344 16.2682 10.1533C16.3138 10.1722 16.3551 10.1998 16.39 10.2347L17.8898 11.7345C17.9248 11.7694 17.9525 11.8107 17.9714 11.8563C17.9903 11.9018 18 11.9507 18 12C18 12.0493 17.9903 12.0982 17.9714 12.1437C17.9525 12.1893 17.9248 12.2306 17.8898 12.2655L16.39 13.7653C16.3551 13.8002 16.3138 13.8278 16.2682 13.8467C16.2227 13.8656 16.1738 13.8753 16.1245 13.8753C16.0752 13.8753 16.0264 13.8656 15.9809 13.8467C15.9353 13.8278 15.8939 13.8002 15.8591 13.7653C15.8242 13.7304 15.7966 13.6891 15.7777 13.6435C15.7588 13.598 15.7491 13.5491 15.7491 13.4998C15.7491 13.4505 15.7588 13.4017 15.7777 13.3562C15.7966 13.3106 15.8242 13.2692 15.8591 13.2344L16.7192 12.375H13.8748C13.7753 12.375 13.68 12.3355 13.6097 12.2651C13.5393 12.1948 13.4998 12.0994 13.4998 12Z"/>
</mask>
<path fill-rule="evenodd" clip-rule="evenodd" d="M11.7345 6.11016C11.7694 6.07524 11.8107 6.04754 11.8563 6.02863C11.9018 6.00973 11.9507 6 12 6C12.0493 6 12.0982 6.00973 12.1437 6.02863C12.1893 6.04754 12.2306 6.07524 12.2655 6.11016L13.7653 7.60999C13.8002 7.64485 13.8278 7.68624 13.8467 7.73179C13.8656 7.77734 13.8753 7.82616 13.8753 7.87546C13.8753 7.92476 13.8656 7.97358 13.8467 8.01913C13.8278 8.06468 13.8002 8.10607 13.7653 8.14093C13.7304 8.17579 13.6891 8.20345 13.6435 8.22231C13.598 8.24118 13.5491 8.25089 13.4998 8.25089C13.4505 8.25089 13.4017 8.24118 13.3562 8.22231C13.3106 8.20345 13.2692 8.17579 13.2344 8.14093L12.375 7.28078V10.1252C12.375 10.2247 12.3355 10.32 12.2651 10.3903C12.1948 10.4607 12.0994 10.5002 12 10.5002C11.9006 10.5002 11.8052 10.4607 11.7349 10.3903C11.6645 10.32 11.625 10.2247 11.625 10.1252V7.28078L10.7656 8.14093C10.6952 8.21134 10.5997 8.25089 10.5002 8.25089C10.4006 8.25089 10.3051 8.21134 10.2347 8.14093C10.1643 8.07052 10.1247 7.97503 10.1247 7.87546C10.1247 7.77589 10.1643 7.6804 10.2347 7.60999L11.7345 6.11016ZM12 13.4998C12.0994 13.4998 12.1948 13.5393 12.2651 13.6097C12.3355 13.68 12.375 13.7753 12.375 13.8748V16.7192L13.2344 15.8591C13.3048 15.7887 13.4003 15.7491 13.4998 15.7491C13.5994 15.7491 13.6949 15.7887 13.7653 15.8591C13.8357 15.9295 13.8753 16.025 13.8753 16.1245C13.8753 16.2241 13.8357 16.3196 13.7653 16.39L12.2655 17.8898C12.2306 17.9248 12.1893 17.9525 12.1437 17.9714C12.0982 17.9903 12.0493 18 12 18C11.9507 18 11.9018 17.9903 11.8563 17.9714C11.8107 17.9525 11.7694 17.9248 11.7345 17.8898L10.2347 16.39C10.1998 16.3551 10.1722 16.3138 10.1533 16.2682C10.1344 16.2227 10.1247 16.1738 10.1247 16.1245C10.1247 16.0752 10.1344 16.0264 10.1533 15.9809C10.1722 15.9353 10.1998 15.8939 10.2347 15.8591C10.3051 15.7887 10.4006 15.7491 10.5002 15.7491C10.5495 15.7491 10.5983 15.7588 10.6438 15.7777C10.6894 15.7966 10.7308 15.8242 10.7656 15.8591L11.625 16.7192V13.8748C11.625 13.7753 11.6645 13.68 11.7349 13.6097C11.8052 13.5393 11.9006 13.4998 12 13.4998ZM6.11016 12.2655C6.07524 12.2306 6.04754 12.1893 6.02863 12.1437C6.00973 12.0982 6 12.0493 6 12C6 11.9507 6.00973 11.9018 6.02863 11.8563C6.04754 11.8107 6.07524 11.7694 6.11016 11.7345L7.60999 10.2347C7.6804 10.1643 7.77589 10.1247 7.87546 10.1247C7.97503 10.1247 8.07052 10.1643 8.14093 10.2347C8.21134 10.3051 8.25089 10.4006 8.25089 10.5002C8.25089 10.5997 8.21134 10.6952 8.14093 10.7656L7.28078 11.625H10.1252C10.2247 11.625 10.32 11.6645 10.3903 11.7349C10.4607 11.8052 10.5002 11.9006 10.5002 12C10.5002 12.0994 10.4607 12.1948 10.3903 12.2651C10.32 12.3355 10.2247 12.375 10.1252 12.375H7.28078L8.14093 13.2344C8.21134 13.3048 8.25089 13.4003 8.25089 13.4998C8.25089 13.5994 8.21134 13.6949 8.14093 13.7653C8.07052 13.8357 7.97503 13.8753 7.87546 13.8753C7.77589 13.8753 7.6804 13.8357 7.60999 13.7653L6.11016 12.2655ZM13.4998 12C13.4998 11.9006 13.5393 11.8052 13.6097 11.7349C13.68 11.6645 13.7753 11.625 13.8748 11.625H16.7192L15.8591 10.7656C15.8242 10.7308 15.7966 10.6894 15.7777 10.6438C15.7588 10.5983 15.7491 10.5495 15.7491 10.5002C15.7491 10.4509 15.7588 10.402 15.7777 10.3565C15.7966 10.3109 15.8242 10.2696 15.8591 10.2347C15.9295 10.1643 16.025 10.1247 16.1245 10.1247C16.1738 10.1247 16.2227 10.1344 16.2682 10.1533C16.3138 10.1722 16.3551 10.1998 16.39 10.2347L17.8898 11.7345C17.9248 11.7694 17.9525 11.8107 17.9714 11.8563C17.9903 11.9018 18 11.9507 18 12C18 12.0493 17.9903 12.0982 17.9714 12.1437C17.9525 12.1893 17.9248 12.2306 17.8898 12.2655L16.39 13.7653C16.3551 13.8002 16.3138 13.8278 16.2682 13.8467C16.2227 13.8656 16.1738 13.8753 16.1245 13.8753C16.0752 13.8753 16.0264 13.8656 15.9809 13.8467C15.9353 13.8278 15.8939 13.8002 15.8591 13.7653C15.8242 13.7304 15.7966 13.6891 15.7777 13.6435C15.7588 13.598 15.7491 13.5491 15.7491 13.4998C15.7491 13.4505 15.7588 13.4017 15.7777 13.3562C15.7966 13.3106 15.8242 13.2692 15.8591 13.2344L16.7192 12.375H13.8748C13.7753 12.375 13.68 12.3355 13.6097 12.2651C13.5393 12.1948 13.4998 12.0994 13.4998 12Z" fill="black" stroke="white" stroke-width="2" mask="url(#path-1-inside-1_342_1566)"/>
</svg>
