<svg width="20" height="20" viewBox="0 0 20 20" fill="none" xmlns="http://www.w3.org/2000/svg">
<g clip-path="url(#clip0_102_1868)">
<path d="M10 18.75C7.67936 18.75 5.45376 17.8281 3.81282 16.1872C2.17187 14.5462 1.25 12.3206 1.25 10C1.25 7.67936 2.17187 5.45376 3.81282 3.81282C5.45376 2.17187 7.67936 1.25 10 1.25C12.3206 1.25 14.5462 2.17187 16.1872 3.81282C17.8281 5.45376 18.75 7.67936 18.75 10C18.75 12.3206 17.8281 14.5462 16.1872 16.1872C14.5462 17.8281 12.3206 18.75 10 18.75ZM10 20C12.6522 20 15.1957 18.9464 17.0711 17.0711C18.9464 15.1957 20 12.6522 20 10C20 7.34784 18.9464 4.8043 17.0711 2.92893C15.1957 1.05357 12.6522 0 10 0C7.34784 0 4.8043 1.05357 2.92893 2.92893C1.05357 4.8043 0 7.34784 0 10C0 12.6522 1.05357 15.1957 2.92893 17.0711C4.8043 18.9464 7.34784 20 10 20Z" fill="#D1D1E4"/>
<path d="M6.25 7.8125C6.25 7.3981 6.41462 7.00067 6.70765 6.70765C7.00067 6.41462 7.3981 6.25 7.8125 6.25C8.2269 6.25 8.62433 6.41462 8.91735 6.70765C9.21038 7.00067 9.375 7.3981 9.375 7.8125V12.1875C9.375 12.6019 9.21038 12.9993 8.91735 13.2924C8.62433 13.5854 8.2269 13.75 7.8125 13.75C7.3981 13.75 7.00067 13.5854 6.70765 13.2924C6.41462 12.9993 6.25 12.6019 6.25 12.1875V7.8125ZM10.625 7.8125C10.625 7.3981 10.7896 7.00067 11.0826 6.70765C11.3757 6.41462 11.7731 6.25 12.1875 6.25C12.6019 6.25 12.9993 6.41462 13.2924 6.70765C13.5854 7.00067 13.75 7.3981 13.75 7.8125V12.1875C13.75 12.6019 13.5854 12.9993 13.2924 13.2924C12.9993 13.5854 12.6019 13.75 12.1875 13.75C11.7731 13.75 11.3757 13.5854 11.0826 13.2924C10.7896 12.9993 10.625 12.6019 10.625 12.1875V7.8125Z" fill="#D1D1E4"/>
</g>
<defs>
<clipPath id="clip0_102_1868">
<rect width="20" height="20" fill="white"/>
</clipPath>
</defs>
</svg>
