<svg width="20" height="20" viewBox="0 0 20 20" fill="none" xmlns="http://www.w3.org/2000/svg">
<g clip-path="url(#clip0_102_1876)">
<path d="M15.1825 0.182397C15.2406 0.124192 15.3095 0.0780139 15.3855 0.0465059C15.4614 0.0149978 15.5428 -0.0012207 15.625 -0.0012207C15.7072 -0.0012207 15.7886 0.0149978 15.8645 0.0465059C15.9405 0.0780139 16.0094 0.124192 16.0675 0.182397L19.8175 3.9324C19.8757 3.99045 19.9219 4.05942 19.9534 4.13535C19.9849 4.21129 20.0011 4.29269 20.0011 4.3749C20.0011 4.45711 19.9849 4.53851 19.9534 4.61444C19.9219 4.69037 19.8757 4.75934 19.8175 4.8174L7.3175 17.3174C7.25752 17.377 7.18608 17.4237 7.1075 17.4549L0.857502 19.9549C0.743922 20.0004 0.619496 20.0115 0.499651 19.9869C0.379806 19.9623 0.269811 19.9031 0.183303 19.8166C0.0967945 19.7301 0.0375777 19.6201 0.0129933 19.5002C-0.011591 19.3804 -0.000461602 19.256 0.0450017 19.1424L2.545 12.8924C2.57616 12.8138 2.62294 12.7424 2.6825 12.6824L15.1825 0.182397ZM14.0088 3.1249L16.875 5.99115L18.4913 4.3749L15.625 1.50865L14.0088 3.1249ZM15.9913 6.8749L13.125 4.00865L5 12.1336V12.4999H5.625C5.79076 12.4999 5.94973 12.5657 6.06694 12.683C6.18415 12.8002 6.25 12.9591 6.25 13.1249V13.7499H6.875C7.04076 13.7499 7.19973 13.8157 7.31694 13.933C7.43415 14.0502 7.5 14.2091 7.5 14.3749V14.9999H7.86625L15.9913 6.8749ZM3.79 13.3436L3.6575 13.4761L1.7475 18.2524L6.52375 16.3424L6.65625 16.2099C6.53703 16.1653 6.43424 16.0855 6.36164 15.9809C6.28905 15.8764 6.2501 15.7522 6.25 15.6249V14.9999H5.625C5.45924 14.9999 5.30027 14.934 5.18306 14.8168C5.06585 14.6996 5 14.5407 5 14.3749V13.7499H4.375C4.24773 13.7498 4.12351 13.7109 4.01897 13.6383C3.91443 13.5657 3.83455 13.4629 3.79 13.3436Z" fill="#D1D1E4"/>
</g>
<defs>
<clipPath id="clip0_102_1876">
<rect width="20" height="20" fill="white"/>
</clipPath>
</defs>
</svg>
