<svg width="24" height="24" viewBox="0 0 24 24" fill="none" xmlns="http://www.w3.org/2000/svg">
<g clip-path="url(#clip0_342_1109)">
<path d="M18.5723 0.57243L18.5727 0.57198C18.5959 0.548701 18.6235 0.530229 18.6539 0.517626C18.6843 0.505022 18.7168 0.498535 18.7497 0.498535C18.7826 0.498535 18.8152 0.505022 18.8455 0.517626C18.8759 0.530229 18.9035 0.548701 18.9267 0.571985L18.9272 0.572429L23.4272 5.07243L23.4276 5.07288C23.4509 5.09609 23.4694 5.12368 23.482 5.15407C23.4946 5.18443 23.501 5.21699 23.501 5.24988C23.501 5.28276 23.4946 5.31533 23.482 5.34569C23.4694 5.37607 23.4509 5.40366 23.4276 5.42688L23.4272 5.42732L8.42839 20.4261C8.42823 20.4263 8.42807 20.4264 8.4279 20.4266C8.40402 20.4502 8.37562 20.4687 8.3444 20.4811L8.34301 20.4816L0.843014 23.4816L0.842904 23.4817C0.797471 23.4999 0.747701 23.5043 0.699762 23.4945C0.651824 23.4847 0.607826 23.461 0.573223 23.4264C0.53862 23.3918 0.514934 23.3478 0.5051 23.2998C0.495266 23.2519 0.499718 23.2021 0.517904 23.1567L0.517947 23.1566L3.51795 15.6566L3.5185 15.6552C3.53088 15.624 3.54942 15.5956 3.57301 15.5717C3.57317 15.5715 3.57333 15.5714 3.5735 15.5712L18.5723 0.57243ZM16.4567 3.39632L16.1031 3.74988L16.4567 4.10343L19.8962 7.54293L20.2497 7.89648L20.6033 7.54293L22.5428 5.60343L22.8963 5.24988L22.5428 4.89632L19.1033 1.45682L18.7497 1.10327L18.3962 1.45682L16.4567 3.39632ZM19.5428 8.60343L19.8963 8.24988L19.5428 7.89632L16.1033 4.45682L15.7497 4.10327L15.3962 4.45682L5.64616 14.2068L5.49971 14.3533V14.5604V14.9999V15.4999H5.99971H6.74971C6.81601 15.4999 6.8796 15.5262 6.92649 15.5731C6.97337 15.62 6.99971 15.6836 6.99971 15.7499V16.4999V16.9999H7.49971H8.24971C8.31602 16.9999 8.3796 17.0262 8.42648 17.0731C8.47337 17.12 8.49971 17.1836 8.49971 17.2499V17.9999V18.4999H8.99971H9.43921H9.64632L9.79276 18.3534L19.5428 8.60343ZM5.01609 15.8374L4.74395 15.109L4.19416 15.6588L4.03516 15.8178L3.96257 15.8904L3.92445 15.9857L1.63245 21.7172L1.19937 22.8002L2.28236 22.3671L8.01386 20.0751L8.10918 20.037L8.18176 19.9644L8.34076 19.8054L8.89055 19.2556L8.16221 18.9835C8.11452 18.9657 8.07341 18.9337 8.04437 18.8919C8.01533 18.8501 7.99975 18.8004 7.99971 18.7495V17.9999V17.4999H7.49971H6.74971C6.6834 17.4999 6.61982 17.4735 6.57293 17.4267C6.52605 17.3798 6.49971 17.3162 6.49971 17.2499V16.4999V15.9999H5.99971H5.25008C5.19918 15.9998 5.14949 15.9843 5.10767 15.9552L4.85475 16.3194L5.10767 15.9552C5.06586 15.9262 5.0339 15.8851 5.01609 15.8374Z" stroke="black"/>
</g>
<defs>
<clipPath id="clip0_342_1109">
<rect width="24" height="24" fill="white"/>
</clipPath>
</defs>
</svg>
