<svg width="24" height="24" viewBox="0 0 24 24" fill="none" xmlns="http://www.w3.org/2000/svg">
<g clip-path="url(#clip0_336_1298)">
<path d="M11.5276 2.31745C11.6612 2.20905 11.828 2.14989 12.0001 2.14989C12.1721 2.14989 12.339 2.20905 12.4726 2.31745L21.8671 9.94945C21.9838 10.0444 22.0692 10.1723 22.1123 10.3165C22.1554 10.4607 22.1541 10.6145 22.1086 10.7579L18.5656 21.9764C18.5175 22.1282 18.4224 22.2607 18.2941 22.3548C18.1657 22.4489 18.0107 22.4997 17.8516 22.4999H6.14858C5.98923 22.4996 5.83412 22.4486 5.70574 22.3542C5.57736 22.2598 5.48238 22.127 5.43458 21.9749L1.89008 10.7594C1.84425 10.6158 1.84277 10.4617 1.88586 10.3172C1.92894 10.1727 2.01457 10.0445 2.13158 9.94945L11.5261 2.31895L11.5276 2.31745ZM23.8471 10.2374C23.8927 10.0937 23.894 9.93944 23.8506 9.79493C23.8073 9.65043 23.7213 9.52236 23.6041 9.42745L12.4741 0.385448C12.3403 0.276671 12.1732 0.217285 12.0008 0.217285C11.8284 0.217285 11.6613 0.276671 11.5276 0.385448L0.396077 9.42895C0.279387 9.52363 0.193832 9.65119 0.150503 9.79509C0.107175 9.93898 0.108072 10.0926 0.153077 10.2359L4.33508 23.4764C4.38314 23.6282 4.47823 23.7607 4.60659 23.8548C4.73495 23.9489 4.88992 23.9997 5.04908 23.9999H18.9511C19.1104 23.9996 19.2655 23.9486 19.3939 23.8542C19.5223 23.7598 19.6173 23.627 19.6651 23.4749L23.8471 10.2374Z" fill="black"/>
</g>
<defs>
<clipPath id="clip0_336_1298">
<rect width="24" height="24" fill="white"/>
</clipPath>
</defs>
</svg>
