<svg width="25" height="24" viewBox="0 0 25 24" fill="none" xmlns="http://www.w3.org/2000/svg">
    <g clip-path="url(#clip0_227_473)">
        <path
            d="M24.5 12C24.5 15.1826 23.2357 18.2348 20.9853 20.4853C18.7348 22.7357 15.6826 24 12.5 24C9.3174 24 6.26516 22.7357 4.01472 20.4853C1.76428 18.2348 0.5 15.1826 0.5 12C0.5 8.8174 1.76428 5.76516 4.01472 3.51472C6.26516 1.26428 9.3174 0 12.5 0C15.6826 0 18.7348 1.26428 20.9853 3.51472C23.2357 5.76516 24.5 8.8174 24.5 12ZM12.5 16.5C13.6935 16.5 14.8381 16.0259 15.682 15.182C16.5259 14.3381 17 13.1935 17 12C17 10.8065 16.5259 9.66193 15.682 8.81802C14.8381 7.97411 13.6935 7.5 12.5 7.5C11.3065 7.5 10.1619 7.97411 9.31802 8.81802C8.47411 9.66193 8 10.8065 8 12C8 13.1935 8.47411 14.3381 9.31802 15.182C10.1619 16.0259 11.3065 16.5 12.5 16.5Z"
            fill="white"
        />
    </g>
    <defs>
        <clipPath id="clip0_227_473">
            <rect width="24" height="24" fill="white" transform="translate(0.5)" />
        </clipPath>
    </defs>
</svg>