<svg width="24" height="24" viewBox="0 0 24 24" fill="none" xmlns="http://www.w3.org/2000/svg">
<g clip-path="url(#clip0_342_1113)">
<path d="M22.4142 1.58579C22.0391 1.21071 21.5304 1 21 1H3C2.46957 1 1.96086 1.21071 1.58579 1.58579C1.21071 1.96086 1 2.46957 1 3V21C1 21.5304 1.21071 22.0391 1.58579 22.4142C1.96086 22.7893 2.46957 23 3 23H21C21.5304 23 22.0391 22.7893 22.4142 22.4142C22.7893 22.0391 23 21.5304 23 21V3C23 2.46957 22.7893 1.96086 22.4142 1.58579ZM1.23223 1.23223C1.70107 0.763392 2.33696 0.5 3 0.5H21C21.663 0.5 22.2989 0.763392 22.7678 1.23223C23.2366 1.70107 23.5 2.33696 23.5 3V21C23.5 21.663 23.2366 22.2989 22.7678 22.7678C22.2989 23.2366 21.663 23.5 21 23.5H3C2.33696 23.5 1.70107 23.2366 1.23223 22.7678C0.763392 22.2989 0.5 21.663 0.5 21V3C0.5 2.33696 0.763392 1.70107 1.23223 1.23223Z" stroke="black"/>
</g>
<defs>
<clipPath id="clip0_342_1113">
<rect width="24" height="24" fill="white"/>
</clipPath>
</defs>
</svg>
