<svg width="48" height="48" viewBox="0 0 48 48" fill="none" xmlns="http://www.w3.org/2000/svg">
    <path
        opacity="0.5"
        d="M20 4H28C35.5424 4 39.3138 4 41.6568 6.34314C44 8.6863 44 12.4575 44 20V22C44 23.1032 44 25.0988 43.987 26H4.01304C4 25.0988 4 23.1032 4 22V20C4 12.4575 4 8.6863 6.34314 6.34314C8.6863 4 12.4575 4 20 4Z"
        fill="url(#paint0_linear_309_111)"
    />
    <path
        d="M15.9692 35C10.2906 35 7.45124 35 5.68712 33.2426C4.54414 32.104 4.1417 30.5158 4 28V26H44V28C43.8584 30.5158 43.4558 32.104 42.3128 33.2426C40.5488 35 37.7094 35 32.0308 35H25.5058V43H32.0308C32.8624 43 33.5366 43.6716 33.5366 44.5C33.5366 45.3284 32.8624 46 32.0308 46H15.9692C15.1376 46 14.4634 45.3284 14.4634 44.5C14.4634 43.6716 15.1376 43 15.9692 43H22.4942V35H15.9692Z"
        fill="#7A3FF6"
    />
    <defs>
        <linearGradient id="paint0_linear_309_111" x1="32.8799" y1="3.84001" x2="12.4799" y2="27.36" gradientUnits="userSpaceOnUse">
            <stop stop-color="#6426E6" />
            <stop offset="1" stop-color="#451AA0" />
        </linearGradient>
    </defs>
</svg>