<svg width="48" height="48" viewBox="0 0 48 48" fill="none" xmlns="http://www.w3.org/2000/svg">
    <path
        opacity="0.4"
        d="M41.94 14.38V26.74H4V14.38C4 9.76 7.76 6 12.38 6H33.56C38.18 6 41.94 9.76 41.94 14.38Z"
        fill="url(#paint0_linear_309_105)"
    />
    <path
        d="M4 26.7402V27.1202C4 31.7602 7.76 35.5002 12.38 35.5002H19.58C20.68 35.5002 21.58 36.4002 21.58 37.5002V39.1402C21.58 40.2402 20.68 41.1402 19.58 41.1402H15.06C14.28 41.1402 13.64 41.7802 13.64 42.5602C13.64 43.3402 14.28 43.9802 15.06 43.9802H30.92C31.7 43.9802 32.34 43.3402 32.34 42.5602C32.34 41.7802 31.7 41.1402 30.92 41.1402H26.42C25.32 41.1402 24.42 40.2402 24.42 39.1402V37.5002C24.42 36.4002 25.32 35.5002 26.42 35.5002H33.56C38.2 35.5002 41.94 31.7402 41.94 27.1202V26.7402H4Z"
        fill="#7A3FF6"
    />
    <path
        d="M43.98 4.72022L41.72 6.30022V5.46022C41.72 3.56022 40.18 2.04022 38.3 2.04022H29.74C27.68 2.02022 26 3.70022 26 5.76022V12.3202C26 14.0402 26.86 15.7402 29.42 15.7402H38.28C40.18 15.7402 41.7 14.2002 41.7 12.3202V11.4602L43.96 13.0402C45.1 13.8202 46 13.3402 46 11.9802V5.78022C46 4.42022 45.1 3.96022 43.98 4.72022Z"
        fill="#7A3FF6"
    />
    <defs>
        <linearGradient id="paint0_linear_309_105" x1="31.3926" y1="5.84917" x2="12.1779" y2="28.1382" gradientUnits="userSpaceOnUse">
            <stop stop-color="#6426E6" />
            <stop offset="1" stop-color="#451AA0" />
        </linearGradient>
    </defs>
</svg>