<svg width="40" height="40" viewBox="0 0 40 40" fill="none" xmlns="http://www.w3.org/2000/svg">
<path d="M0.615385 11.077C0.955252 11.077 1.23077 10.8014 1.23077 10.4616C1.23077 10.1217 0.955252 9.84619 0.615385 9.84619C0.275517 9.84619 0 10.1217 0 10.4616C0 10.8014 0.275517 11.077 0.615385 11.077Z" fill="#00C033"/>
<path d="M38.7692 30.1539C39.1091 30.1539 39.3846 29.8783 39.3846 29.5385C39.3846 29.1986 39.1091 28.9231 38.7692 28.9231C38.4293 28.9231 38.1538 29.1986 38.1538 29.5385C38.1538 29.8783 38.4293 30.1539 38.7692 30.1539Z" fill="#00C033"/>
<path d="M19.6924 35.6923C28.189 35.6923 35.077 28.8044 35.077 20.3077C35.077 11.811 28.189 4.9231 19.6924 4.9231C11.1957 4.9231 4.30774 11.811 4.30774 20.3077C4.30774 28.8044 11.1957 35.6923 19.6924 35.6923Z" fill="#53EA53"/>
<path d="M34.4615 20.9231C34.1231 20.9231 33.8461 20.6462 33.8461 20.3077C33.8461 12.5046 27.4954 6.15386 19.6923 6.15386C19.3538 6.15386 19.0769 5.87694 19.0769 5.53848C19.0769 5.20002 19.3538 4.9231 19.6923 4.9231C28.1784 4.9231 35.0769 11.8216 35.0769 20.3077C35.0769 20.6462 34.8 20.9231 34.4615 20.9231Z" fill="#85F985"/>
<path d="M24.6154 30.7693C16.117 30.7693 9.23082 23.8831 9.23082 15.3847C9.23082 12.4 10.0862 9.61234 11.557 7.24927C7.2062 9.96927 4.30774 14.7939 4.30774 20.3077C4.30774 28.8062 11.1939 35.6923 19.6924 35.6923C25.2 35.6923 30.0308 32.7939 32.7508 28.4431C30.3877 29.9139 27.6062 30.7693 24.6154 30.7693Z" fill="#3DC13D"/>
<path d="M19.6923 32.6154C26.4897 32.6154 32 27.105 32 20.3077C32 13.5103 26.4897 8 19.6923 8C12.895 8 7.38464 13.5103 7.38464 20.3077C7.38464 27.105 12.895 32.6154 19.6923 32.6154Z" fill="#F5F7F7"/>
<path d="M24.6154 27.6923C17.8154 27.6923 12.3077 22.1846 12.3077 15.3846C12.3077 13.2492 12.8493 11.2492 13.8031 9.49536C9.97541 11.5815 7.38464 15.6431 7.38464 20.3077C7.38464 27.1077 12.8923 32.6154 19.6923 32.6154C24.357 32.6154 28.4123 30.0184 30.5046 26.1969C28.757 27.1507 26.7508 27.6923 24.6154 27.6923Z" fill="#D3E5E4"/>
<path d="M19.6923 30.7693C25.47 30.7693 30.1538 26.0855 30.1538 20.3077C30.1538 14.53 25.47 9.84619 19.6923 9.84619C13.9145 9.84619 9.23071 14.53 9.23071 20.3077C9.23071 26.0855 13.9145 30.7693 19.6923 30.7693Z" fill="#53EA53"/>
<path d="M24.6153 25.846C18.8369 25.846 14.1538 21.163 14.1538 15.3845C14.1538 13.766 14.5292 12.246 15.1876 10.8799C11.6676 12.566 9.23071 16.1476 9.23071 20.3076C9.23071 26.086 13.9138 30.7691 19.6923 30.7691C23.8523 30.7691 27.4399 28.3322 29.1199 24.8122C27.7538 25.4645 26.2276 25.846 24.6153 25.846Z" fill="#3DC13D"/>
<path d="M19.323 25.9876L14.1538 20.3076H17.2307L18.8307 22.0122L22.2953 15.3845H25.2307L19.323 25.9876Z" fill="#F5F7F7"/>
<path d="M5.48308 5.23087L5.96924 4.74471C6.20924 4.50471 6.20924 4.11702 5.96924 3.87702C5.72924 3.63702 5.34154 3.63702 5.10154 3.87702L4.61539 4.36318L4.12924 3.87702C3.88924 3.63702 3.50154 3.63702 3.26154 3.87702C3.02154 4.11702 3.02154 4.50471 3.26154 4.74471L3.7477 5.23087L3.26154 5.71702C3.02154 5.95702 3.02154 6.34471 3.26154 6.58471C3.38462 6.70779 3.53847 6.76318 3.69847 6.76318C3.85847 6.76318 4.01231 6.70164 4.13539 6.58471L4.62154 6.09856L5.1077 6.58471C5.23077 6.70779 5.38462 6.76318 5.54462 6.76318C5.70462 6.76318 5.85847 6.70164 5.98154 6.58471C6.22154 6.34471 6.22154 5.95702 5.98154 5.71702L5.49539 5.23087H5.48308Z" fill="#FB3D80"/>
<path d="M34.4615 35.6923C35.1412 35.6923 35.6923 35.1412 35.6923 34.4615C35.6923 33.7817 35.1412 33.2307 34.4615 33.2307C33.7817 33.2307 33.2307 33.7817 33.2307 34.4615C33.2307 35.1412 33.7817 35.6923 34.4615 35.6923Z" fill="#FB3D80"/>
</svg>
