<svg width="24" height="24" viewBox="0 0 24 24" fill="none" xmlns="http://www.w3.org/2000/svg">
<mask id="path-1-inside-1_435_740" fill="white">
<path d="M18.3871 4.5H5.62206L5.49756 8.19H6.21606C6.60606 5.874 7.35306 5.5155 10.2556 5.4225L10.8916 5.403V17.1435C10.8916 18.138 10.6756 18.3735 8.94156 18.528V19.308H15.0646V18.528C13.3216 18.3735 13.1056 18.138 13.1056 17.1435V5.403L13.7521 5.4225C16.6531 5.5155 17.4031 5.874 17.7916 8.1915H18.5101L18.3871 4.5Z"/>
</mask>
<path d="M18.3871 4.5H5.62206L5.49756 8.19H6.21606C6.60606 5.874 7.35306 5.5155 10.2556 5.4225L10.8916 5.403V17.1435C10.8916 18.138 10.6756 18.3735 8.94156 18.528V19.308H15.0646V18.528C13.3216 18.3735 13.1056 18.138 13.1056 17.1435V5.403L13.7521 5.4225C16.6531 5.5155 17.4031 5.874 17.7916 8.1915H18.5101L18.3871 4.5Z" fill="black"/>
<path d="M18.3871 4.5L22.3848 4.36679L22.256 0.5H18.3871V4.5ZM5.62206 4.5V0.5H1.75474L1.62433 4.36512L5.62206 4.5ZM5.49756 8.19L1.49983 8.05512L1.36032 12.19H5.49756V8.19ZM6.21606 8.19V12.19H9.5988L10.1605 8.85422L6.21606 8.19ZM10.2556 5.4225L10.133 1.42438L10.1275 1.42455L10.2556 5.4225ZM10.8916 5.403H14.8916V1.27848L10.769 1.40488L10.8916 5.403ZM8.94156 18.528L8.58656 14.5438L4.94156 14.8686V18.528H8.94156ZM8.94156 19.308H4.94156V23.308H8.94156V19.308ZM15.0646 19.308V23.308H19.0646V19.308H15.0646ZM15.0646 18.528H19.0646V14.8669L15.4177 14.5436L15.0646 18.528ZM13.1056 5.403L13.2262 1.40482L9.10556 1.28053V5.403H13.1056ZM13.7521 5.4225L13.8802 1.42455L13.8727 1.42432L13.7521 5.4225ZM17.7916 8.1915L13.8466 8.85282L14.4063 12.1915H17.7916V8.1915ZM18.5101 8.1915V12.1915H22.6456L22.5078 8.05829L18.5101 8.1915ZM18.3871 0.5H5.62206V8.5H18.3871V0.5ZM1.62433 4.36512L1.49983 8.05512L9.49528 8.32488L9.61978 4.63488L1.62433 4.36512ZM5.49756 12.19H6.21606V4.19H5.49756V12.19ZM10.1605 8.85422C10.1943 8.65368 10.2224 8.5325 10.2406 8.46624C10.2587 8.40019 10.2575 8.42338 10.2211 8.50057C10.1818 8.58374 10.1027 8.72744 9.96505 8.89151C9.82334 9.06049 9.65669 9.20682 9.48084 9.32167C9.14865 9.53862 8.93459 9.5445 9.12944 9.51116C9.21575 9.49638 9.35638 9.47805 9.57447 9.46111C9.79128 9.44426 10.055 9.43098 10.3837 9.42045L10.1275 1.42455C9.36359 1.44903 8.54677 1.49457 7.78004 1.62578C7.00631 1.75819 6.03691 2.01588 5.10641 2.62358C3.00645 3.99504 2.49718 6.18615 2.27159 7.52578L10.1605 8.85422ZM10.3781 9.42062L11.0141 9.40112L10.769 1.40488L10.133 1.42438L10.3781 9.42062ZM6.89156 5.403V17.1435H14.8916V5.403H6.89156ZM6.89156 17.1435C6.89156 17.3294 6.87002 17.0565 6.98703 16.6504C7.15031 16.0836 7.52436 15.4312 8.17107 14.9476C8.44129 14.7455 8.68379 14.6307 8.83847 14.569C8.98951 14.5087 9.08937 14.4862 9.10082 14.4837C9.11459 14.4806 9.08431 14.4879 8.98879 14.5008C8.89535 14.5134 8.76579 14.5278 8.58656 14.5438L9.29655 22.5122C9.77648 22.4695 10.3267 22.4077 10.8547 22.289C11.3583 22.1759 12.1764 21.9419 12.9625 21.3539C14.9555 19.8634 14.8916 17.6106 14.8916 17.1435H6.89156ZM4.94156 18.528V19.308H12.9416V18.528H4.94156ZM8.94156 23.308H15.0646V15.308H8.94156V23.308ZM19.0646 19.308V18.528H11.0646V19.308H19.0646ZM15.4177 14.5436C15.2372 14.5276 15.1064 14.5131 15.0117 14.5004C14.915 14.4875 14.8835 14.48 14.8961 14.4828C14.9064 14.4851 15.0051 14.5071 15.1551 14.5667C15.3087 14.6277 15.5507 14.7416 15.8208 14.9428C16.1031 15.1531 16.3729 15.4267 16.5961 15.7622C16.8149 16.091 16.9392 16.4044 17.0094 16.6473C17.1272 17.0553 17.1056 17.3299 17.1056 17.1435H9.10556C9.10556 17.6116 9.04185 19.8689 11.0421 21.3587C11.8288 21.9447 12.6469 22.1774 13.1502 22.2899C13.6784 22.4081 14.2295 22.4697 14.7114 22.5124L15.4177 14.5436ZM17.1056 17.1435V5.403H9.10556V17.1435H17.1056ZM12.985 9.40118L13.6315 9.42068L13.8727 1.42432L13.2262 1.40482L12.985 9.40118ZM13.6239 9.42045C13.9524 9.43098 14.2159 9.44426 14.4327 9.4611C14.6507 9.47804 14.7913 9.49638 14.8776 9.51116C15.0725 9.54452 14.8588 9.53869 14.527 9.322C14.3513 9.20728 14.1847 9.06104 14.043 8.89208C13.9054 8.72798 13.8261 8.58419 13.7867 8.50077C13.7502 8.42333 13.749 8.3999 13.767 8.46564C13.785 8.5316 13.813 8.65253 13.8466 8.85282L21.7365 7.53018C21.5114 6.18709 21.0018 3.99545 18.901 2.62362C17.9705 2.01599 17.001 1.75826 16.2273 1.62583C15.4605 1.49458 14.6438 1.44903 13.8802 1.42455L13.6239 9.42045ZM17.7916 12.1915H18.5101V4.1915H17.7916V12.1915ZM22.5078 8.05829L22.3848 4.36679L14.3893 4.63321L14.5123 8.32471L22.5078 8.05829Z" fill="black" mask="url(#path-1-inside-1_435_740)"/>
</svg>
