<svg width="24" height="24" viewBox="0 0 24 24" fill="none" xmlns="http://www.w3.org/2000/svg">
<path d="M9.75 1.5H14.25C14.4489 1.5 14.6397 1.57902 14.7803 1.71967C14.921 1.86032 15 2.05109 15 2.25V3.75H9V2.25C9 2.05109 9.07902 1.86032 9.21967 1.71967C9.36032 1.57902 9.55109 1.5 9.75 1.5ZM16.5 3.75V2.25C16.5 1.65326 16.2629 1.08097 15.841 0.65901C15.419 0.237053 14.8467 0 14.25 0L9.75 0C9.15326 0 8.58097 0.237053 8.15901 0.65901C7.73705 1.08097 7.5 1.65326 7.5 2.25V3.75H2.25C2.05109 3.75 1.86032 3.82902 1.71967 3.96967C1.57902 4.11032 1.5 4.30109 1.5 4.5C1.5 4.69891 1.57902 4.88968 1.71967 5.03033C1.86032 5.17098 2.05109 5.25 2.25 5.25H3.057L4.3365 21.24C4.39684 21.9918 4.73813 22.6933 5.29241 23.2048C5.84669 23.7162 6.57329 24.0002 7.3275 24H16.6725C17.4267 24.0002 18.1533 23.7162 18.7076 23.2048C19.2619 22.6933 19.6032 21.9918 19.6635 21.24L20.943 5.25H21.75C21.9489 5.25 22.1397 5.17098 22.2803 5.03033C22.421 4.88968 22.5 4.69891 22.5 4.5C22.5 4.30109 22.421 4.11032 22.2803 3.96967C22.1397 3.82902 21.9489 3.75 21.75 3.75H16.5ZM19.437 5.25L18.168 21.12C18.1378 21.4959 17.9672 21.8466 17.69 22.1024C17.4129 22.3581 17.0496 22.5001 16.6725 22.5H7.3275C6.9504 22.5001 6.5871 22.3581 6.30996 22.1024C6.03282 21.8466 5.86217 21.4959 5.832 21.12L4.563 5.25H19.437ZM8.2065 6.75C8.405 6.73853 8.59993 6.80634 8.74845 6.93855C8.89696 7.07075 8.9869 7.25651 8.9985 7.455L9.7485 20.205C9.75638 20.4012 9.68702 20.5926 9.55533 20.7382C9.42363 20.8838 9.24009 20.972 9.04411 20.9838C8.84814 20.9955 8.65536 20.93 8.50716 20.8012C8.35897 20.6725 8.26718 20.4907 8.2515 20.295L7.5 7.545C7.49391 7.44647 7.50733 7.34771 7.5395 7.25437C7.57166 7.16104 7.62193 7.07498 7.68743 7.00112C7.75293 6.92726 7.83236 6.86705 7.92118 6.82396C8.01 6.78087 8.10645 6.75573 8.205 6.75H8.2065ZM15.7935 6.75C15.8921 6.75573 15.9885 6.78087 16.0773 6.82396C16.1661 6.86705 16.2456 6.92726 16.3111 7.00112C16.3766 7.07498 16.4268 7.16104 16.459 7.25437C16.4912 7.34771 16.5046 7.44647 16.4985 7.545L15.7485 20.295C15.7445 20.3947 15.7207 20.4925 15.6784 20.5829C15.6361 20.6732 15.5762 20.7542 15.5022 20.8211C15.4282 20.888 15.3417 20.9395 15.2475 20.9726C15.1534 21.0056 15.0537 21.0195 14.9541 21.0135C14.8545 21.0076 14.7572 20.9818 14.6677 20.9377C14.5782 20.8936 14.4984 20.8321 14.433 20.7568C14.3676 20.6815 14.3178 20.594 14.2866 20.4992C14.2555 20.4044 14.2435 20.3044 14.2515 20.205L15.0015 7.455C15.0131 7.25651 15.103 7.07075 15.2516 6.93855C15.4001 6.80634 15.595 6.73853 15.7935 6.75ZM12 6.75C12.1989 6.75 12.3897 6.82902 12.5303 6.96967C12.671 7.11032 12.75 7.30109 12.75 7.5V20.25C12.75 20.4489 12.671 20.6397 12.5303 20.7803C12.3897 20.921 12.1989 21 12 21C11.8011 21 11.6103 20.921 11.4697 20.7803C11.329 20.6397 11.25 20.4489 11.25 20.25V7.5C11.25 7.30109 11.329 7.11032 11.4697 6.96967C11.6103 6.82902 11.8011 6.75 12 6.75Z" fill="black"/>
</svg>
