<svg width="40" height="40" viewBox="0 0 40 40" fill="none" xmlns="http://www.w3.org/2000/svg">
    <rect width="40" height="40" rx="20" fill="#E7E0F5" />
    <path
        fill-rule="evenodd"
        clip-rule="evenodd"
        d="M8 15.5C8 14.7044 8.31607 13.9413 8.87868 13.3787C9.44129 12.8161 10.2044 12.5 11 12.5H22.25C22.9776 12.4999 23.6805 12.7643 24.2277 13.2439C24.7749 13.7235 25.1292 14.3856 25.2245 15.107L29.8895 13.034C30.1178 12.9323 30.368 12.8892 30.6172 12.9087C30.8664 12.9283 31.1068 13.0098 31.3165 13.1458C31.5262 13.2819 31.6986 13.4682 31.8179 13.6879C31.9373 13.9075 31.9999 14.1535 32 14.4035V25.5965C31.9998 25.8463 31.9372 26.0921 31.8179 26.3115C31.6986 26.531 31.5264 26.7172 31.3169 26.8532C31.1074 26.9893 30.8673 27.0708 30.6183 27.0905C30.3693 27.1102 30.1193 27.0674 29.891 26.966L25.2245 24.893C25.1292 25.6144 24.7749 26.2765 24.2277 26.7561C23.6805 27.2357 22.9776 27.5001 22.25 27.5H11C10.2044 27.5 9.44129 27.1839 8.87868 26.6213C8.31607 26.0587 8 25.2956 8 24.5V15.5ZM25.25 23.2625L30.5 25.5965V14.4035L25.25 16.7375V23.2625ZM11 14C10.6022 14 10.2206 14.158 9.93934 14.4393C9.65804 14.7206 9.5 15.1022 9.5 15.5V24.5C9.5 24.8978 9.65804 25.2794 9.93934 25.5607C10.2206 25.842 10.6022 26 11 26H22.25C22.6478 26 23.0294 25.842 23.3107 25.5607C23.592 25.2794 23.75 24.8978 23.75 24.5V15.5C23.75 15.1022 23.592 14.7206 23.3107 14.4393C23.0294 14.158 22.6478 14 22.25 14H11Z"
        fill="#010113"
    />
</svg>